<svg width="800" height="800" viewBox="0 0 800 800" fill="none" xmlns="http://www.w3.org/2000/svg">
<path fill-rule="evenodd" clip-rule="evenodd" d="M351.862 1.58095C229.874 19.8024 128.817 84.3737 61.8605 186.876C-20.7699 313.379 -20.6049 487.272 62.2655 615.106C97.2511 669.075 106.341 676.074 111.673 653.164C113.863 643.743 125.929 590.611 138.484 535.095C151.038 479.578 163.075 428.271 165.22 421.071C168.385 410.476 177.789 407.986 214.582 407.986H260.037L255.522 436.025C253.047 451.45 248.818 475.002 246.133 488.364C241.506 511.37 242.413 512.664 263.277 512.664H285.318L307.337 406.117C319.456 347.512 329.363 296.205 329.363 292.092C329.363 287.98 321.999 283.569 312.999 282.29C293.703 279.553 284.523 294.006 277.076 338.824L271.796 370.601H222.899C175.982 370.601 174.159 369.92 178.044 353.778C180.271 344.528 184.291 324.879 186.969 310.119C191.738 283.823 191.393 283.352 169.75 286.522L147.663 289.752L119.427 418.035C103.903 488.588 89.429 549.338 87.2766 553.04C79.942 565.623 55.7709 506.271 46.6589 453.304C7.03104 222.908 222.869 8.1831 454.314 47.7514C483.855 52.7984 522.335 63.2438 539.824 70.96L571.637 84.9869L575.425 65.2102C577.517 54.3386 577.697 42.9885 575.845 39.9902C563.373 19.8696 407.906 -6.79329 351.862 1.58095ZM622.807 84.6055C620.715 91.8059 601.718 185.171 580.599 292.092C559.481 399.013 540.484 492.379 538.392 499.579C533.315 517.053 569.493 517.868 576.205 500.431C580.479 489.328 582.317 489.463 596.101 501.904C605.273 510.181 621.742 515.311 637.671 514.862C682.886 513.583 715.592 470.8 715.592 412.921C715.592 356.709 680.486 332.408 626.339 351.146C612.525 355.923 609.21 354.989 612.12 347.16C614.198 341.545 623.812 295.734 633.479 245.361C643.146 194.988 653.481 153.768 656.443 153.768C666.89 153.768 708.565 212.806 728.004 255.148C839.29 497.485 640.431 778.284 372.913 756.571C309.564 751.427 255.972 732.645 201.203 696.389L161.695 670.234L156.693 692.912C151.031 718.625 157.765 726.013 213.442 755.188C303.235 802.241 420.303 813.172 517.168 783.548C618.622 752.518 716.064 672.731 759.21 585.363C790.445 522.092 800.037 476.871 800 393.032C799.955 317.649 783.478 252.3 750.96 198.63C733.689 170.12 641.699 71.5208 632.369 71.5208C629.204 71.5208 624.9 77.4052 622.807 84.6055ZM363.284 387.424C358.567 409.01 352.8 442.305 350.46 461.401C346.597 492.984 348.015 497.299 366.171 509.165C384.898 521.397 388.093 521.442 417.708 509.837C437.23 502.196 450.249 500.372 451.817 505.067C453.211 509.247 462.053 512.664 471.45 512.664C486.975 512.664 489.735 506.615 501.374 447.24C508.423 411.261 516.066 373.98 518.36 364.402C522.05 348.977 520.145 347.273 501.636 349.448C482.272 351.729 479.782 355.991 467.633 407.717C454.651 462.994 435.887 490.233 410.794 490.233C392.622 490.233 390.23 467.869 401.892 406.894L413.119 348.17H392.487C373.686 348.17 371.091 351.654 363.284 387.424ZM666.695 385.383C685.414 406.004 677.554 450.993 651.261 473.768C633.479 489.171 629.767 489.859 615.39 480.386C588.287 462.538 589.771 413.795 618.285 385.368C637.011 366.698 649.731 366.705 666.695 385.383Z" fill="white"/>
<path d="M159.094 268H147.18V196.027H159.094V268ZM213.098 227.18C212.121 226.008 210.754 224.934 208.996 223.957C207.303 222.915 205.025 222.297 202.16 222.102V212.727C205.741 212.922 208.801 213.703 211.34 215.07C213.944 216.372 216.288 218.293 218.371 220.832L213.098 227.18ZM202.16 258.723C204.504 258.462 206.49 257.909 208.117 257.062C209.81 256.151 211.405 255.109 212.902 253.938L217.297 260.285C215.279 262.824 213.098 264.777 210.754 266.145C208.41 267.447 205.546 268.195 202.16 268.391V258.723ZM174.914 240.461C174.914 236.75 175.435 233.267 176.477 230.012C177.583 226.757 179.178 223.892 181.262 221.418C183.345 218.944 185.786 216.958 188.586 215.461C191.451 213.898 194.641 212.987 198.156 212.727V222.199C194.901 222.915 192.297 224.934 190.344 228.254C188.391 231.509 187.414 235.48 187.414 240.168C187.414 242.577 187.642 244.855 188.098 247.004C188.618 249.087 189.335 250.943 190.246 252.57C191.158 254.198 192.264 255.565 193.566 256.672C194.934 257.779 196.464 258.462 198.156 258.723V268.391C194.576 268.195 191.353 267.349 188.488 265.852C185.624 264.289 183.182 262.271 181.164 259.797C179.146 257.258 177.583 254.328 176.477 251.008C175.435 247.688 174.914 244.172 174.914 240.461ZM259.484 212.629C263.065 212.824 266.32 213.703 269.25 215.266C272.18 216.763 274.621 218.781 276.574 221.32C278.592 223.794 280.155 226.691 281.262 230.012C282.368 233.332 282.922 236.88 282.922 240.656C282.922 244.432 282.336 247.98 281.164 251.301C280.057 254.556 278.495 257.421 276.477 259.895C274.458 262.303 271.984 264.257 269.055 265.754C266.125 267.251 262.935 268.13 259.484 268.391V259.016C262.74 258.299 265.376 256.249 267.395 252.863C269.478 249.478 270.52 245.409 270.52 240.656C270.52 238.247 270.259 236.001 269.738 233.918C269.283 231.77 268.566 229.849 267.59 228.156C266.613 226.464 265.441 225.064 264.074 223.957C262.707 222.85 261.177 222.134 259.484 221.809V212.629ZM232.238 240.461C232.238 236.685 232.792 233.169 233.898 229.914C235.005 226.659 236.568 223.827 238.586 221.418C240.669 218.944 243.143 216.958 246.008 215.461C248.872 213.964 252.03 213.052 255.48 212.727V221.809C252.225 222.525 249.621 224.576 247.668 227.961C245.715 231.346 244.738 235.415 244.738 240.168C244.738 242.577 244.966 244.855 245.422 247.004C245.943 249.152 246.659 251.073 247.57 252.766C248.482 254.458 249.589 255.858 250.891 256.965C252.258 258.072 253.788 258.755 255.48 259.016V268.391C251.9 268.13 248.677 267.251 245.812 265.754C242.948 264.191 240.507 262.173 238.488 259.699C236.47 257.225 234.908 254.328 233.801 251.008C232.759 247.688 232.238 244.172 232.238 240.461ZM308.801 212.922L310.07 218.488V268H298.254V212.922H308.801ZM339.27 218.977C340.376 220.083 341.223 221.385 341.809 222.883C342.46 224.315 342.915 225.845 343.176 227.473C343.501 229.035 343.697 230.63 343.762 232.258C343.827 233.885 343.859 235.48 343.859 237.043V266.047V268H331.945V238.02C331.945 235.806 331.848 233.69 331.652 231.672C331.457 229.654 331.001 227.863 330.285 226.301C329.569 224.738 328.592 223.534 327.355 222.688C326.118 221.776 324.393 221.32 322.18 221.32C321.268 221.32 320.031 221.483 318.469 221.809C316.971 222.069 315.507 222.525 314.074 223.176V215.656C315.832 214.745 317.72 213.964 319.738 213.312C321.822 212.661 323.84 212.336 325.793 212.336C328.723 212.336 331.197 212.954 333.215 214.191C335.233 215.363 337.251 216.958 339.27 218.977ZM371.984 268H360.07V212.922H371.984V268ZM373.059 195.344C373.059 197.297 372.375 198.957 371.008 200.324C369.641 201.626 367.98 202.277 366.027 202.277C364.074 202.277 362.414 201.594 361.047 200.227C359.745 198.859 359.094 197.232 359.094 195.344C359.094 193.391 359.777 191.73 361.145 190.363C362.512 188.996 364.139 188.312 366.027 188.312C367.98 188.312 369.641 188.996 371.008 190.363C372.375 191.73 373.059 193.391 373.059 195.344ZM425.207 227.18C424.23 226.008 422.863 224.934 421.105 223.957C419.413 222.915 417.134 222.297 414.27 222.102V212.727C417.85 212.922 420.91 213.703 423.449 215.07C426.053 216.372 428.397 218.293 430.48 220.832L425.207 227.18ZM414.27 258.723C416.613 258.462 418.599 257.909 420.227 257.062C421.919 256.151 423.514 255.109 425.012 253.938L429.406 260.285C427.388 262.824 425.207 264.777 422.863 266.145C420.52 267.447 417.655 268.195 414.27 268.391V258.723ZM387.023 240.461C387.023 236.75 387.544 233.267 388.586 230.012C389.693 226.757 391.288 223.892 393.371 221.418C395.454 218.944 397.896 216.958 400.695 215.461C403.56 213.898 406.75 212.987 410.266 212.727V222.199C407.01 222.915 404.406 224.934 402.453 228.254C400.5 231.509 399.523 235.48 399.523 240.168C399.523 242.577 399.751 244.855 400.207 247.004C400.728 249.087 401.444 250.943 402.355 252.57C403.267 254.198 404.374 255.565 405.676 256.672C407.043 257.779 408.573 258.462 410.266 258.723V268.391C406.685 268.195 403.462 267.349 400.598 265.852C397.733 264.289 395.292 262.271 393.273 259.797C391.255 257.258 389.693 254.328 388.586 251.008C387.544 247.688 387.023 244.172 387.023 240.461Z" fill="white"/>
</svg>
