<svg width="95" height="123" viewBox="0 0 95 123" fill="none" xmlns="http://www.w3.org/2000/svg">
<path fill-rule="evenodd" clip-rule="evenodd" d="M36.5476 1.90158C32.9726 2.90758 28.4336 4.00358 26.4596 4.33658C21.5266 5.16958 14.9226 10.5066 12.4146 15.6866C10.8656 18.8866 10.1886 22.7266 9.7876 30.5776L9.2476 41.1566L5.8976 43.1336C1.8616 45.5146 1.5896 48.2386 5.1546 50.5746C7.3256 51.9976 7.5206 52.4606 6.3176 53.3476C4.3236 54.8186 2.5476 58.3676 2.5476 60.8816C2.5476 62.0376 1.8336 64.0726 0.961597 65.4036C-0.576403 67.7506 -0.185403 70.4836 1.5366 69.4196C2.3106 68.9406 4.4376 73.9556 4.9546 77.4826C5.0716 78.2806 5.7036 79.4686 6.3576 80.1226C7.8846 81.6496 7.8886 85.1716 6.3646 86.6956C4.6346 88.4256 6.0356 89.2576 8.4766 87.9506C10.1746 87.0416 10.6946 87.1326 11.1916 88.4266C11.5296 89.3076 12.4396 89.7846 13.2146 89.4866C15.8826 88.4626 15.8586 91.9786 13.1776 94.7766C11.7306 96.2866 10.5476 97.8346 10.5476 98.2176C10.5476 99.4576 12.8456 98.9536 14.6556 97.3146C17.2166 94.9966 18.7256 96.4446 17.9666 100.491C17.4666 103.156 17.6576 103.913 18.8306 103.913C20.6066 103.913 26.5476 109.226 26.5476 110.814C26.5476 111.419 26.9396 111.913 27.4186 111.913C27.8976 111.913 29.3606 113.485 30.6686 115.406C31.9766 117.327 33.5546 118.902 34.1756 118.906C34.7956 118.91 35.8586 119.583 36.5386 120.402C37.2186 121.221 38.1926 121.632 38.7046 121.316C39.2166 121 40.1776 121.178 40.8416 121.712C41.5836 122.309 44.3446 122.364 48.0206 121.854C51.3056 121.398 54.1806 121.212 54.4086 121.441C54.6376 121.67 56.1476 120.745 57.7636 119.385C59.3786 118.025 61.1416 116.913 61.6806 116.913C63.1176 116.913 68.5476 110.703 68.5476 109.06C68.5476 108.285 70.0286 105.573 71.8376 103.032C73.6476 100.492 75.9896 96.6126 77.0416 94.4126C78.5786 91.1996 79.0336 90.8056 79.3546 92.4126C79.8886 95.0886 82.5736 98.0146 83.7986 97.2576C84.3546 96.9136 84.5256 94.7656 84.1906 92.3246C83.5126 87.3766 84.7166 85.7926 86.3796 89.4436C88.0116 93.0246 90.1916 92.5816 90.2276 88.6626C90.2436 86.8756 90.3556 84.0626 90.4756 82.4126C90.5956 80.7626 90.4846 77.0506 90.2276 74.1626C89.9716 71.2756 90.1786 68.9126 90.6876 68.9126C92.5306 68.9126 93.4026 64.4896 91.9966 62.2686C90.7646 60.3216 90.8196 60.1706 92.5936 60.6346C93.6686 60.9156 94.5476 60.6836 94.5476 60.1186C94.5476 58.5996 88.6566 53.9126 86.7486 53.9126C85.4676 53.9126 85.5956 53.5676 87.3246 52.3556C89.8756 50.5696 90.2476 46.7386 88.0476 44.9126C86.9796 44.0256 86.5476 41.6796 86.5476 36.7586C86.5476 26.1376 81.6096 12.5616 76.6886 9.65458C71.4206 6.54258 51.1126 -0.0714169 47.0476 0.000583114C44.8476 0.0395831 40.1226 0.894583 36.5476 1.90158ZM77.2546 54.6746C78.4466 60.2926 78.1076 80.8416 76.7466 85.5116C76.0896 87.7656 74.4246 91.1406 73.0466 93.0116C71.6696 94.8826 70.2676 97.1946 69.9316 98.1516C69.5956 99.1076 67.7966 100.832 65.9336 101.983C64.0716 103.134 62.5476 104.437 62.5476 104.878C62.5476 106.33 58.7396 106.711 54.1056 105.723C51.5986 105.189 49.5476 104.337 49.5476 103.832C49.5476 103.327 49.9366 102.913 50.4126 102.913C50.8886 102.913 52.5096 101.944 54.0146 100.76C56.3716 98.9066 56.5296 98.4816 55.1496 97.7096C54.2686 97.2166 53.5476 95.9966 53.5476 94.9986C53.5476 93.4446 54.2476 93.2366 58.4336 93.5466C62.6456 93.8596 63.5276 93.5916 64.8266 91.6096C66.1046 89.6596 66.1346 88.8356 65.0236 86.1946C64.3036 84.4806 62.7436 82.1086 61.5586 80.9236C59.7066 79.0716 59.5516 78.3386 60.4626 75.7256C61.0466 74.0516 61.2766 72.2836 60.9756 71.7956C60.6736 71.3076 61.4666 70.4746 62.7376 69.9446C66.8856 68.2146 69.4636 65.1936 70.0226 61.4126C70.3046 59.5006 68.3256 57.9616 64.6976 57.2716L61.0476 56.5766L64.0476 55.7316C65.6976 55.2666 68.0606 55.1256 69.2976 55.4186C71.7856 56.0066 72.3776 54.1426 70.3476 52.1126C69.4146 51.1796 69.5256 50.9126 70.8476 50.9126C71.7826 50.9126 72.5476 50.4466 72.5476 49.8776C72.5476 47.2176 76.5346 51.2806 77.2546 54.6746ZM81.2366 72.6626C80.9856 73.6256 80.7796 72.8376 80.7796 70.9126C80.7796 68.9876 80.9856 68.1996 81.2366 69.1626C81.4886 70.1256 81.4886 71.6996 81.2366 72.6626ZM81.0106 83.9836C78.8496 88.1626 78.1506 87.1016 79.5766 81.8066C80.5156 78.3186 80.9156 77.8186 81.6796 79.1836C82.3286 80.3426 82.1196 81.8386 81.0106 83.9836Z" fill="white"/>
</svg>
