<svg width="886" height="114" viewBox="0 0 886 114" fill="none" xmlns="http://www.w3.org/2000/svg">
<path d="M97.4062 30.9297C106.5 30.9297 113.438 33.25 118.219 37.8906C123.047 42.5312 125.461 49.9609 125.461 60.1797V112H97.9688V68.6875C97.9688 62.6406 97.1484 58.4453 95.5078 56.1016C93.9141 53.7109 91.5234 52.5156 88.3359 52.5156C83.8828 52.5156 80.7891 54.4609 79.0547 58.3516C77.3672 62.2422 76.5234 67.75 76.5234 74.875V112H48.9609V68.6875C48.9609 64.8438 48.6094 61.75 47.9062 59.4062C47.25 57.0156 46.2422 55.2812 44.8828 54.2031C43.5234 53.0781 41.8125 52.5156 39.75 52.5156C36.6094 52.5156 34.1484 53.4766 32.3672 55.3984C30.6328 57.2734 29.4141 60.0391 28.7109 63.6953C28.0078 67.3516 27.6562 71.8281 27.6562 77.125V112H0.164062V32.3359H20.9062L24.9141 42.1797H25.6875C27.0938 40.0234 28.8984 38.1016 31.1016 36.4141C33.3516 34.7266 36 33.3906 39.0469 32.4062C42.1406 31.4219 45.6562 30.9297 49.5938 30.9297C55.4531 30.9297 60.2812 31.9141 64.0781 33.8828C67.875 35.8516 70.9688 38.5703 73.3594 42.0391H74.2031C76.7344 38.4766 79.9922 35.7344 83.9766 33.8125C87.9609 31.8906 92.4375 30.9297 97.4062 30.9297ZM220.242 71.9922C220.242 78.6484 219.328 84.5547 217.5 89.7109C215.672 94.8672 213.023 99.2031 209.555 102.719C206.086 106.234 201.891 108.906 196.969 110.734C192.047 112.516 186.492 113.406 180.305 113.406C174.539 113.406 169.242 112.516 164.414 110.734C159.633 108.906 155.461 106.234 151.898 102.719C148.336 99.2031 145.57 94.8672 143.602 89.7109C141.68 84.5547 140.719 78.6484 140.719 71.9922C140.719 63.1797 142.312 55.7266 145.5 49.6328C148.734 43.5391 153.328 38.8984 159.281 35.7109C165.281 32.5234 172.43 30.9297 180.727 30.9297C188.367 30.9297 195.164 32.5234 201.117 35.7109C207.07 38.8984 211.734 43.5391 215.109 49.6328C218.531 55.7266 220.242 63.1797 220.242 71.9922ZM168.633 71.9922C168.633 76.5391 169.031 80.3828 169.828 83.5234C170.625 86.6172 171.891 88.9844 173.625 90.625C175.406 92.2188 177.727 93.0156 180.586 93.0156C183.445 93.0156 185.719 92.2188 187.406 90.625C189.094 88.9844 190.312 86.6172 191.062 83.5234C191.859 80.3828 192.258 76.5391 192.258 71.9922C192.258 67.4453 191.859 63.6484 191.062 60.6016C190.312 57.5547 189.07 55.2578 187.336 53.7109C185.648 52.1641 183.352 51.3906 180.445 51.3906C176.273 51.3906 173.25 53.125 171.375 56.5938C169.547 60.0625 168.633 65.1953 168.633 71.9922ZM275.016 91.6797C277.5 91.6797 279.773 91.4219 281.836 90.9062C283.898 90.3906 286.055 89.7344 288.305 88.9375V108.977C285.305 110.289 282.117 111.344 278.742 112.141C275.414 112.984 271.148 113.406 265.945 113.406C260.789 113.406 256.242 112.609 252.305 111.016C248.367 109.375 245.297 106.562 243.094 102.578C240.938 98.5469 239.859 92.9453 239.859 85.7734V52.9375H230.227V41.7578L242.461 33.1094L249.562 16.375H267.562V32.3359H287.109V52.9375H267.562V83.9453C267.562 86.5234 268.219 88.4688 269.531 89.7812C270.844 91.0469 272.672 91.6797 275.016 91.6797ZM329.859 32.3359V112H302.367V32.3359H329.859ZM316.219 0.273438C320.156 0.273438 323.578 1.09375 326.484 2.73438C329.438 4.375 330.914 7.63281 330.914 12.5078C330.914 17.2422 329.438 20.4531 326.484 22.1406C323.578 23.7812 320.156 24.6016 316.219 24.6016C312.188 24.6016 308.742 23.7812 305.883 22.1406C303.07 20.4531 301.664 17.2422 301.664 12.5078C301.664 7.63281 303.07 4.375 305.883 2.73438C308.742 1.09375 312.188 0.273438 316.219 0.273438ZM397.711 52.9375H380.766V112H353.273V52.9375H342.727V39.4375L353.836 32.6875V31.3516C353.836 24.4609 354.75 18.8594 356.578 14.5469C358.406 10.1875 361.312 6.97656 365.297 4.91406C369.281 2.85156 374.484 1.82031 380.906 1.82031C385.031 1.82031 388.758 2.14844 392.086 2.80469C395.461 3.46094 398.977 4.39844 402.633 5.61719L396.727 23.4062C395.367 23.0313 393.844 22.7031 392.156 22.4219C390.516 22.1406 388.734 22 386.812 22C384.703 22 383.156 22.6562 382.172 23.9688C381.234 25.2344 380.766 27.3203 380.766 30.2266V32.3359H397.711V52.9375ZM470.695 113.406C462.492 113.406 455.742 109.914 450.445 102.93C445.148 95.9453 442.5 85.7266 442.5 72.2734C442.5 58.6797 445.219 48.3906 450.656 41.4062C456.094 34.4219 463.125 30.9297 471.75 30.9297C475.312 30.9297 478.383 31.4453 480.961 32.4766C483.539 33.5078 485.766 34.9141 487.641 36.6953C489.562 38.4297 491.227 40.3984 492.633 42.6016H493.195C492.867 40.5859 492.562 37.8203 492.281 34.3047C492 30.7422 491.859 27.2734 491.859 23.8984V2.59375H519.562V112H498.82L492.914 101.945H491.859C490.594 104.055 489 105.977 487.078 107.711C485.203 109.445 482.906 110.828 480.188 111.859C477.516 112.891 474.352 113.406 470.695 113.406ZM481.945 91.6797C486.352 91.6797 489.445 90.2969 491.227 87.5312C493.055 84.7188 494.039 80.4531 494.18 74.7344V72.5547C494.18 66.2734 493.289 61.4688 491.508 58.1406C489.773 54.7656 486.492 53.0781 481.664 53.0781C478.383 53.0781 475.664 54.6719 473.508 57.8594C471.352 61.0469 470.273 65.9922 470.273 72.6953C470.273 79.3047 471.352 84.1328 473.508 87.1797C475.711 90.1797 478.523 91.6797 481.945 91.6797ZM566.25 32.3359V112H538.758V32.3359H566.25ZM552.609 0.273438C556.547 0.273438 559.969 1.09375 562.875 2.73438C565.828 4.375 567.305 7.63281 567.305 12.5078C567.305 17.2422 565.828 20.4531 562.875 22.1406C559.969 23.7812 556.547 24.6016 552.609 24.6016C548.578 24.6016 545.133 23.7812 542.273 22.1406C539.461 20.4531 538.055 17.2422 538.055 12.5078C538.055 7.63281 539.461 4.375 542.273 2.73438C545.133 1.09375 548.578 0.273438 552.609 0.273438ZM647.602 113.406C639.398 113.406 632.648 109.914 627.352 102.93C622.055 95.9453 619.406 85.7266 619.406 72.2734C619.406 58.6797 622.125 48.3906 627.562 41.4062C633 34.4219 640.031 30.9297 648.656 30.9297C652.219 30.9297 655.289 31.4453 657.867 32.4766C660.445 33.5078 662.672 34.9141 664.547 36.6953C666.469 38.4297 668.133 40.3984 669.539 42.6016H670.102C669.773 40.5859 669.469 37.8203 669.188 34.3047C668.906 30.7422 668.766 27.2734 668.766 23.8984V2.59375H696.469V112H675.727L669.82 101.945H668.766C667.5 104.055 665.906 105.977 663.984 107.711C662.109 109.445 659.812 110.828 657.094 111.859C654.422 112.891 651.258 113.406 647.602 113.406ZM658.852 91.6797C663.258 91.6797 666.352 90.2969 668.133 87.5312C669.961 84.7188 670.945 80.4531 671.086 74.7344V72.5547C671.086 66.2734 670.195 61.4688 668.414 58.1406C666.68 54.7656 663.398 53.0781 658.57 53.0781C655.289 53.0781 652.57 54.6719 650.414 57.8594C648.258 61.0469 647.18 65.9922 647.18 72.6953C647.18 79.3047 648.258 84.1328 650.414 87.1797C652.617 90.1797 655.43 91.6797 658.852 91.6797ZM791.602 71.9922C791.602 78.6484 790.688 84.5547 788.859 89.7109C787.031 94.8672 784.383 99.2031 780.914 102.719C777.445 106.234 773.25 108.906 768.328 110.734C763.406 112.516 757.852 113.406 751.664 113.406C745.898 113.406 740.602 112.516 735.773 110.734C730.992 108.906 726.82 106.234 723.258 102.719C719.695 99.2031 716.93 94.8672 714.961 89.7109C713.039 84.5547 712.078 78.6484 712.078 71.9922C712.078 63.1797 713.672 55.7266 716.859 49.6328C720.094 43.5391 724.688 38.8984 730.641 35.7109C736.641 32.5234 743.789 30.9297 752.086 30.9297C759.727 30.9297 766.523 32.5234 772.477 35.7109C778.43 38.8984 783.094 43.5391 786.469 49.6328C789.891 55.7266 791.602 63.1797 791.602 71.9922ZM739.992 71.9922C739.992 76.5391 740.391 80.3828 741.188 83.5234C741.984 86.6172 743.25 88.9844 744.984 90.625C746.766 92.2188 749.086 93.0156 751.945 93.0156C754.805 93.0156 757.078 92.2188 758.766 90.625C760.453 88.9844 761.672 86.6172 762.422 83.5234C763.219 80.3828 763.617 76.5391 763.617 71.9922C763.617 67.4453 763.219 63.6484 762.422 60.6016C761.672 57.5547 760.43 55.2578 758.695 53.7109C757.008 52.1641 754.711 51.3906 751.805 51.3906C747.633 51.3906 744.609 53.125 742.734 56.5938C740.906 60.0625 739.992 65.1953 739.992 71.9922ZM857.203 30.9297C865.406 30.9297 872.109 33.25 877.312 37.8906C882.516 42.5312 885.117 49.9609 885.117 60.1797V112H857.625V68.5469C857.625 63.25 856.852 59.2656 855.305 56.5938C853.805 53.875 851.367 52.5156 847.992 52.5156C842.789 52.5156 839.297 54.6484 837.516 58.9141C835.734 63.1328 834.844 69.2031 834.844 77.125V112H807.352V32.3359H828.094L831.82 42.8828H832.875C834.562 40.3516 836.578 38.1953 838.922 36.4141C841.266 34.6328 843.961 33.2734 847.008 32.3359C850.055 31.3984 853.453 30.9297 857.203 30.9297Z" fill="#FAE62D"/>
</svg>
